<?xml version="1.0" encoding="UTF-8"?>
<!DOCTYPE svg PUBLIC "-//W3C//DTD SVG 1.1//EN" "http://www.w3.org/Graphics/SVG/1.1/DTD/svg11.dtd">
<svg xmlns="http://www.w3.org/2000/svg" version="1.1" width="500px" height="500px" style="shape-rendering:geometricPrecision; text-rendering:geometricPrecision; image-rendering:optimizeQuality; fill-rule:evenodd; clip-rule:evenodd" xmlns:xlink="http://www.w3.org/1999/xlink">
<g><path style="opacity:1" fill="#70c4c1" d="M 269.5,166.5 C 264.363,164.912 259.697,162.578 255.5,159.5C 255.058,155.153 254.225,154.82 253,158.5C 252.667,158.167 252.333,157.833 252,157.5C 251.86,159.256 252.36,160.922 253.5,162.5C 253.023,163.478 252.357,164.311 251.5,165C 254.552,164.979 257.552,164.812 260.5,164.5C 260.5,165.833 260.5,167.167 260.5,168.5C 258.05,168.298 255.717,168.631 253.5,169.5C 253.03,168.307 252.03,167.64 250.5,167.5C 247.821,169.162 245.155,169.829 242.5,169.5C 242.92,167.326 242.92,165.326 242.5,163.5C 240.535,166.12 239.035,165.786 238,162.5C 236.512,164.16 234.679,165.16 232.5,165.5C 238.461,159.869 244.128,153.869 249.5,147.5C 254.898,155.233 261.565,161.566 269.5,166.5 Z"/></g>
<g><path style="opacity:1" fill="#63bcbf" d="M 242.5,169.5 C 243.602,171.092 242.935,171.925 240.5,172C 241.337,173.011 241.67,174.178 241.5,175.5C 240.833,175.833 240.167,176.167 239.5,176.5C 239.5,175.5 239.5,174.5 239.5,173.5C 236.365,173.452 234.698,171.785 234.5,168.5C 231.672,170.748 228.672,172.748 225.5,174.5C 223.55,173.628 221.55,172.961 219.5,172.5C 223.577,169.773 227.91,167.439 232.5,165.5C 234.679,165.16 236.512,164.16 238,162.5C 239.035,165.786 240.535,166.12 242.5,163.5C 242.92,165.326 242.92,167.326 242.5,169.5 Z"/></g>
<g><path style="opacity:1" fill="#6ac6bd" d="M 269.5,166.5 C 270.602,169.347 272.602,171.347 275.5,172.5C 273.926,173.631 272.259,173.798 270.5,173C 268.181,170.343 265.347,168.509 262,167.5C 260.351,168.885 259.184,170.551 258.5,172.5C 255.715,173.084 254.048,172.084 253.5,169.5C 255.717,168.631 258.05,168.298 260.5,168.5C 260.5,167.167 260.5,165.833 260.5,164.5C 257.552,164.812 254.552,164.979 251.5,165C 252.357,164.311 253.023,163.478 253.5,162.5C 252.36,160.922 251.86,159.256 252,157.5C 252.333,157.833 252.667,158.167 253,158.5C 254.225,154.82 255.058,155.153 255.5,159.5C 259.697,162.578 264.363,164.912 269.5,166.5 Z"/></g>
<g><path style="opacity:1" fill="#63b7c1" d="M 239.5,176.5 C 235.831,179.337 231.831,181.67 227.5,183.5C 227.881,182.069 228.881,181.236 230.5,181C 227.834,178.953 224.834,177.453 221.5,176.5C 220.378,175.844 219.045,175.511 217.5,175.5C 212.824,176.504 208.157,177.504 203.5,178.5C 208.547,175.987 213.88,173.987 219.5,172.5C 221.55,172.961 223.55,173.628 225.5,174.5C 228.672,172.748 231.672,170.748 234.5,168.5C 234.698,171.785 236.365,173.452 239.5,173.5C 239.5,174.5 239.5,175.5 239.5,176.5 Z"/></g>
<g><path style="opacity:1" fill="#70c6c0" d="M 269.5,166.5 C 272.54,167.68 275.206,169.347 277.5,171.5C 277.5,172.167 277.5,172.833 277.5,173.5C 276.751,174.531 276.085,175.698 275.5,177C 276.565,178.629 277.899,179.796 279.5,180.5C 279.058,181.739 278.391,182.739 277.5,183.5C 271.749,181.087 266.082,178.587 260.5,176C 259.695,174.887 259.028,173.721 258.5,172.5C 259.184,170.551 260.351,168.885 262,167.5C 265.347,168.509 268.181,170.343 270.5,173C 272.259,173.798 273.926,173.631 275.5,172.5C 272.602,171.347 270.602,169.347 269.5,166.5 Z"/></g>
<g><path style="opacity:1" fill="#72c9be" d="M 277.5,173.5 C 284.025,174.919 289.358,178.085 293.5,183C 290.128,184.019 287.128,185.519 284.5,187.5C 282.012,186.312 279.678,184.979 277.5,183.5C 278.391,182.739 279.058,181.739 279.5,180.5C 277.899,179.796 276.565,178.629 275.5,177C 276.085,175.698 276.751,174.531 277.5,173.5 Z"/></g>
<g><path style="opacity:1" fill="#58b2be" d="M 221.5,176.5 C 224.834,177.453 227.834,178.953 230.5,181C 228.881,181.236 227.881,182.069 227.5,183.5C 221.301,186.922 214.634,189.255 207.5,190.5C 207.5,188.833 207.5,187.167 207.5,185.5C 205.799,185.034 204.299,185.034 203,185.5C 202.833,185.167 202.667,184.833 202.5,184.5C 203.333,184.167 204.167,183.833 205,183.5C 208.264,185.3 211.764,185.8 215.5,185C 212.785,184.125 211.452,182.292 211.5,179.5C 215.132,179.247 218.466,178.247 221.5,176.5 Z"/></g>
<g><path style="opacity:1" fill="#7accbf" d="M 277.5,171.5 C 286.113,174.926 294.78,177.926 303.5,180.5C 308.634,182.156 313.967,183.489 319.5,184.5C 319.5,184.833 319.5,185.167 319.5,185.5C 315.493,184.996 311.493,184.83 307.5,185C 309.503,187.668 311.17,190.502 312.5,193.5C 308.812,193.219 305.145,192.719 301.5,192C 302.793,191.51 304.127,191.343 305.5,191.5C 305.67,190.178 305.337,189.011 304.5,188C 301.475,187.639 298.475,187.139 295.5,186.5C 291.942,188.648 288.275,188.981 284.5,187.5C 287.128,185.519 290.128,184.019 293.5,183C 289.358,178.085 284.025,174.919 277.5,173.5C 277.5,172.833 277.5,172.167 277.5,171.5 Z"/></g>
<g><path style="opacity:1" fill="#58a7be" d="M 221.5,176.5 C 218.466,178.247 215.132,179.247 211.5,179.5C 211.452,182.292 212.785,184.125 215.5,185C 211.764,185.8 208.264,185.3 205,183.5C 204.167,183.833 203.333,184.167 202.5,184.5C 202.667,184.833 202.833,185.167 203,185.5C 204.299,185.034 205.799,185.034 207.5,185.5C 207.5,187.167 207.5,188.833 207.5,190.5C 202.127,192.579 196.461,193.912 190.5,194.5C 190.611,193.883 190.944,193.383 191.5,193C 194.132,192.551 196.632,191.717 199,190.5C 200.538,191.749 201.705,191.582 202.5,190C 201.008,188.115 199.008,187.115 196.5,187C 197.357,186.311 198.023,185.478 198.5,184.5C 193.682,183.188 189.015,183.188 184.5,184.5C 176.517,183.834 168.517,183.501 160.5,183.5C 174.824,182.945 189.157,181.278 203.5,178.5C 208.157,177.504 212.824,176.504 217.5,175.5C 219.045,175.511 220.378,175.844 221.5,176.5 Z"/></g>
<g><path style="opacity:0.838" fill="#9cd2c7" d="M 303.5,180.5 C 315.454,181.901 327.454,182.568 339.5,182.5C 340.207,190.658 340.874,198.825 341.5,207C 341.513,212.725 340.846,218.225 339.5,223.5C 339.832,212.813 339.499,202.146 338.5,191.5C 337.708,189.535 337.041,187.535 336.5,185.5C 330.872,184.505 325.206,184.171 319.5,184.5C 313.967,183.489 308.634,182.156 303.5,180.5 Z"/></g>
<g><path style="opacity:1" fill="#4a97bb" d="M 160.5,183.5 C 168.517,183.501 176.517,183.834 184.5,184.5C 185.978,184.238 187.311,184.571 188.5,185.5C 187.092,186.243 185.759,187.077 184.5,188C 184.833,188.333 185.167,188.667 185.5,189C 187.715,189.17 189.715,189.837 191.5,191C 187.396,192.686 183.062,193.519 178.5,193.5C 178.611,192.883 178.944,192.383 179.5,192C 177.754,191.529 176.087,190.862 174.5,190C 174.5,188.333 174.5,186.667 174.5,185C 169.833,184.333 165.167,184.333 160.5,185C 160.822,189.723 160.822,194.556 160.5,199.5C 159.833,199.5 159.167,199.5 158.5,199.5C 158.668,193.966 159.335,188.633 160.5,183.5 Z"/></g>
<g><path style="opacity:1" fill="#79d0c0" d="M 319.5,185.5 C 321.5,185.5 323.5,185.5 325.5,185.5C 326.807,186.802 326.807,188.135 325.5,189.5C 330.571,189.98 332.404,192.647 331,197.5C 329.871,195.859 328.371,194.859 326.5,194.5C 323.612,193.99 321.279,194.656 319.5,196.5C 317.621,195.659 315.621,195.325 313.5,195.5C 313.167,194.833 312.833,194.167 312.5,193.5C 311.17,190.502 309.503,187.668 307.5,185C 311.493,184.83 315.493,184.996 319.5,185.5 Z"/></g>
<g><path style="opacity:1" fill="#82d1c0" d="M 319.5,185.5 C 319.5,185.167 319.5,184.833 319.5,184.5C 325.206,184.171 330.872,184.505 336.5,185.5C 337.041,187.535 337.708,189.535 338.5,191.5C 339.499,202.146 339.832,212.813 339.5,223.5C 339.806,226.385 339.473,229.052 338.5,231.5C 338.5,226.5 338.5,221.5 338.5,216.5C 338.829,210.463 338.496,204.463 337.5,198.5C 336.186,197.687 335.019,196.687 334,195.5C 333.667,195.833 333.333,196.167 333,196.5C 332.405,195.101 332.572,193.768 333.5,192.5C 332.319,188.37 329.652,186.036 325.5,185.5C 323.5,185.5 321.5,185.5 319.5,185.5 Z"/></g>
<g><path style="opacity:1" fill="#83cac2" d="M 253.5,169.5 C 254.048,172.084 255.715,173.084 258.5,172.5C 259.028,173.721 259.695,174.887 260.5,176C 266.082,178.587 271.749,181.087 277.5,183.5C 279.678,184.979 282.012,186.312 284.5,187.5C 288.275,188.981 291.942,188.648 295.5,186.5C 298.475,187.139 301.475,187.639 304.5,188C 305.337,189.011 305.67,190.178 305.5,191.5C 304.127,191.343 302.793,191.51 301.5,192C 305.145,192.719 308.812,193.219 312.5,193.5C 312.833,194.167 313.167,194.833 313.5,195.5C 289.607,192.879 268.274,184.212 249.5,169.5C 246.815,171.524 244.148,173.524 241.5,175.5C 241.67,174.178 241.337,173.011 240.5,172C 242.935,171.925 243.602,171.092 242.5,169.5C 245.155,169.829 247.821,169.162 250.5,167.5C 252.03,167.64 253.03,168.307 253.5,169.5 Z"/></g>
<g><path style="opacity:1" fill="#418eb9" d="M 178.5,193.5 C 175.904,194.265 173.237,194.599 170.5,194.5C 169.732,193.737 169.232,192.737 169,191.5C 168.667,191.833 168.333,192.167 168,192.5C 167.204,201.188 165.704,201.522 163.5,193.5C 163.631,192.624 163.298,191.957 162.5,191.5C 161.509,195.445 161.176,199.445 161.5,203.5C 160.566,202.432 160.232,201.099 160.5,199.5C 160.822,194.556 160.822,189.723 160.5,185C 165.167,184.333 169.833,184.333 174.5,185C 174.5,186.667 174.5,188.333 174.5,190C 176.087,190.862 177.754,191.529 179.5,192C 178.944,192.383 178.611,192.883 178.5,193.5 Z"/></g>
<g><path style="opacity:1" fill="#509ebb" d="M 184.5,184.5 C 189.015,183.188 193.682,183.188 198.5,184.5C 198.023,185.478 197.357,186.311 196.5,187C 199.008,187.115 201.008,188.115 202.5,190C 201.705,191.582 200.538,191.749 199,190.5C 196.632,191.717 194.132,192.551 191.5,193C 190.944,193.383 190.611,193.883 190.5,194.5C 184.589,195.558 178.589,196.225 172.5,196.5C 171.313,203.491 171.313,210.491 172.5,217.5C 171.698,216.048 171.198,214.382 171,212.5C 170.501,206.509 170.334,200.509 170.5,194.5C 173.237,194.599 175.904,194.265 178.5,193.5C 183.062,193.519 187.396,192.686 191.5,191C 189.715,189.837 187.715,189.17 185.5,189C 185.167,188.667 184.833,188.333 184.5,188C 185.759,187.077 187.092,186.243 188.5,185.5C 187.311,184.571 185.978,184.238 184.5,184.5 Z"/></g>
<g><path style="opacity:1" fill="#7bd0c0" d="M 325.5,185.5 C 329.652,186.036 332.319,188.37 333.5,192.5C 332.572,193.768 332.405,195.101 333,196.5C 333.333,196.167 333.667,195.833 334,195.5C 335.019,196.687 336.186,197.687 337.5,198.5C 338.496,204.463 338.829,210.463 338.5,216.5C 334.239,215.098 332.405,212.098 333,207.5C 332.586,207.957 332.086,208.291 331.5,208.5C 330.719,207.271 330.219,205.938 330,204.5C 329.722,205.416 329.222,206.082 328.5,206.5C 329.01,202.187 328.343,198.187 326.5,194.5C 328.371,194.859 329.871,195.859 331,197.5C 332.404,192.647 330.571,189.98 325.5,189.5C 326.807,188.135 326.807,186.802 325.5,185.5 Z"/></g>
<g><path style="opacity:1" fill="#4889b6" d="M 170.5,194.5 C 170.334,200.509 170.501,206.509 171,212.5C 171.198,214.382 171.698,216.048 172.5,217.5C 173.328,227.647 174.994,237.647 177.5,247.5C 174.273,247.324 171.273,246.657 168.5,245.5C 170.5,245.5 172.5,245.5 174.5,245.5C 174.243,242.068 173.576,238.734 172.5,235.5C 172.142,231.491 171.642,227.491 171,223.5C 170.667,223.833 170.333,224.167 170,224.5C 169.79,221.766 168.956,219.266 167.5,217C 167.957,216.586 168.291,216.086 168.5,215.5C 167.263,214.719 166.263,213.719 165.5,212.5C 166.246,211.264 166.579,209.93 166.5,208.5C 165.5,208.5 164.5,208.5 163.5,208.5C 163.5,203.5 163.5,198.5 163.5,193.5C 165.704,201.522 167.204,201.188 168,192.5C 168.333,192.167 168.667,191.833 169,191.5C 169.232,192.737 169.732,193.737 170.5,194.5 Z"/></g>
<g><path style="opacity:1" fill="#73cabd" d="M 338.5,216.5 C 338.5,221.5 338.5,226.5 338.5,231.5C 338.5,231.833 338.5,232.167 338.5,232.5C 336.812,229.777 335.312,226.777 334,223.5C 333.125,225.513 331.791,225.513 330,223.5C 329.383,224.449 329.549,225.282 330.5,226C 329.5,226.667 328.5,226.667 327.5,226C 328.478,219.59 328.811,213.09 328.5,206.5C 329.222,206.082 329.722,205.416 330,204.5C 330.219,205.938 330.719,207.271 331.5,208.5C 332.086,208.291 332.586,207.957 333,207.5C 332.405,212.098 334.239,215.098 338.5,216.5 Z"/></g>
<g><path style="opacity:0.976" fill="#80c7d4" d="M 237.5,236.5 C 235.693,235.164 234.193,233.497 233,231.5C 232.5,247.163 232.333,262.83 232.5,278.5C 232.167,278.5 231.833,278.5 231.5,278.5C 231.667,261.83 231.5,245.163 231,228.5C 230.802,230.382 230.302,232.048 229.5,233.5C 229.978,230.722 228.978,228.722 226.5,227.5C 225.833,232.651 225.166,237.651 224.5,242.5C 224.666,236.158 224.5,229.825 224,223.5C 223.827,229.348 223.327,235.015 222.5,240.5C 222.5,234.833 222.5,229.167 222.5,223.5C 220.833,223.5 219.167,223.5 217.5,223.5C 217.5,235.167 217.5,246.833 217.5,258.5C 217.167,258.5 216.833,258.5 216.5,258.5C 216.36,239.155 216.693,219.822 217.5,200.5C 219.144,200.286 220.644,200.62 222,201.5C 223.232,206.721 223.899,212.054 224,217.5C 224.483,216.552 224.649,215.552 224.5,214.5C 226.167,214.5 227.833,214.5 229.5,214.5C 229.133,218.967 229.633,223.3 231,227.5C 232.577,224.325 234.41,223.991 236.5,226.5C 237.417,229.758 237.751,233.091 237.5,236.5 Z M 224.5,242.5 C 223.833,242.5 223.167,242.5 222.5,242.5C 222.5,241.833 222.5,241.167 222.5,240.5C 223.327,235.015 223.827,229.348 224,223.5C 224.5,229.825 224.666,236.158 224.5,242.5 Z"/></g>
<g><path style="opacity:1" fill="#3c81b9" d="M 163.5,193.5 C 163.5,198.5 163.5,203.5 163.5,208.5C 164.5,208.5 165.5,208.5 166.5,208.5C 166.579,209.93 166.246,211.264 165.5,212.5C 166.263,213.719 167.263,214.719 168.5,215.5C 168.291,216.086 167.957,216.586 167.5,217C 168.956,219.266 169.79,221.766 170,224.5C 170.333,224.167 170.667,223.833 171,223.5C 171.642,227.491 172.142,231.491 172.5,235.5C 171.542,235.953 170.708,236.619 170,237.5C 169.383,236.551 169.549,235.718 170.5,235C 168.293,233.208 166.959,230.874 166.5,228C 165.833,227.333 165.167,227.333 164.5,228C 166.211,229.133 166.711,230.633 166,232.5C 164.258,229.623 163.091,226.623 162.5,223.5C 161.62,216.877 161.287,210.211 161.5,203.5C 161.176,199.445 161.509,195.445 162.5,191.5C 163.298,191.957 163.631,192.624 163.5,193.5 Z"/></g>
<g><path style="opacity:0.998" fill="#5a89b2" d="M 158.5,199.5 C 159.167,199.5 159.833,199.5 160.5,199.5C 160.232,201.099 160.566,202.432 161.5,203.5C 161.287,210.211 161.62,216.877 162.5,223.5C 161.861,224.097 161.528,224.93 161.5,226C 162.77,231.433 163.604,236.933 164,242.5C 165.878,243.053 167.378,244.053 168.5,245.5C 165.901,245.451 163.734,244.451 162,242.5C 158.975,228.261 157.808,213.928 158.5,199.5 Z"/></g>
<g><path style="opacity:1" fill="#74c4bc" d="M 326.5,194.5 C 328.343,198.187 329.01,202.187 328.5,206.5C 328.811,213.09 328.478,219.59 327.5,226C 328.5,226.667 329.5,226.667 330.5,226C 329.549,225.282 329.383,224.449 330,223.5C 331.791,225.513 333.125,225.513 334,223.5C 335.312,226.777 336.812,229.777 338.5,232.5C 338.007,234.806 337.674,237.139 337.5,239.5C 334.167,240.167 330.833,240.833 327.5,241.5C 325.517,241.843 324.183,241.176 323.5,239.5C 325.916,225.286 326.916,210.953 326.5,196.5C 324.167,196.5 321.833,196.5 319.5,196.5C 321.279,194.656 323.612,193.99 326.5,194.5 Z"/></g>
<g><path style="opacity:0.99" fill="#92cdd1" d="M 244.5,296.5 C 244.167,296.5 243.833,296.5 243.5,296.5C 243.833,280.153 243.499,263.82 242.5,247.5C 240.554,244.312 239.221,240.979 238.5,237.5C 238.334,230.159 238.5,222.826 239,215.5C 240.667,214.167 242.333,214.167 244,215.5C 244.5,242.498 244.667,269.498 244.5,296.5 Z"/></g>
<g><path style="opacity:0.98" fill="#4d95af" d="M 215.5,255.5 C 214.833,250.319 214.167,244.985 213.5,239.5C 212.914,239.709 212.414,240.043 212,240.5C 211.667,242.833 211.333,245.167 211,247.5C 210.5,236.839 210.333,226.172 210.5,215.5C 211.884,214.199 213.384,214.199 215,215.5C 215.5,228.829 215.667,242.163 215.5,255.5 Z"/></g>
<g><path style="opacity:0.694" fill="#d0a876" d="M 323.5,239.5 C 324.183,241.176 325.517,241.843 327.5,241.5C 329.06,243.129 328.727,244.296 326.5,245C 322.312,245.176 318.312,245.676 314.5,246.5C 312.97,248.346 310.97,249.346 308.5,249.5C 309.765,248.521 311.099,247.521 312.5,246.5C 313.788,244.701 313.788,243.035 312.5,241.5C 312.011,238.676 310.344,237.343 307.5,237.5C 307.769,235.571 307.269,233.905 306,232.5C 305.517,233.448 305.351,234.448 305.5,235.5C 305.167,235.5 304.833,235.5 304.5,235.5C 304.513,230.74 305.18,226.074 306.5,221.5C 307.262,222.628 307.929,223.795 308.5,225C 308.167,226.667 307.833,228.333 307.5,230C 308.264,232.069 308.764,234.236 309,236.5C 314.084,228.261 315.751,228.594 314,237.5C 315.819,235.464 317.653,235.297 319.5,237C 318.016,238.574 316.349,239.907 314.5,241C 317.844,241.906 320.844,241.406 323.5,239.5 Z"/></g>
<g><path style="opacity:0.004" fill="#feff00" d="M 298.5,233.5 C 299.658,234.95 299.158,235.95 297,236.5C 296.329,235.748 295.496,235.414 294.5,235.5C 295.514,234.326 296.847,233.66 298.5,233.5 Z"/></g>
<g><path style="opacity:1" fill="#387ab5" d="M 162.5,223.5 C 163.091,226.623 164.258,229.623 166,232.5C 166.711,230.633 166.211,229.133 164.5,228C 165.167,227.333 165.833,227.333 166.5,228C 166.959,230.874 168.293,233.208 170.5,235C 169.549,235.718 169.383,236.551 170,237.5C 170.708,236.619 171.542,235.953 172.5,235.5C 173.576,238.734 174.243,242.068 174.5,245.5C 172.5,245.5 170.5,245.5 168.5,245.5C 167.378,244.053 165.878,243.053 164,242.5C 163.604,236.933 162.77,231.433 161.5,226C 161.528,224.93 161.861,224.097 162.5,223.5 Z"/></g>
<g><path style="opacity:0.997" fill="#6ca2c2" d="M 202.5,278.5 C 202.44,279.043 202.107,279.376 201.5,279.5C 200.668,270.184 200.168,260.851 200,251.5C 199,250.833 198,250.167 197,249.5C 196.825,253.211 196.325,256.878 195.5,260.5C 194.893,260.376 194.56,260.043 194.5,259.5C 195.33,250.009 195.83,240.342 196,230.5C 197.667,229.167 199.333,229.167 201,230.5C 201.169,246.672 201.669,262.672 202.5,278.5 Z"/></g>
<g><path style="opacity:0.765" fill="#d29c5a" d="M 304.5,235.5 C 304.833,235.5 305.167,235.5 305.5,235.5C 303.821,238.195 301.821,240.695 299.5,243C 300.337,244.011 300.67,245.178 300.5,246.5C 302.677,246.586 304.677,247.253 306.5,248.5C 308.001,247.248 309.668,246.248 311.5,245.5C 312.429,244.311 312.762,242.978 312.5,241.5C 313.788,243.035 313.788,244.701 312.5,246.5C 311.099,247.521 309.765,248.521 308.5,249.5C 307.542,249.953 306.708,250.619 306,251.5C 304.566,249.864 302.733,248.864 300.5,248.5C 299.824,247.398 299.158,246.398 298.5,245.5C 294.154,245.666 289.821,245.499 285.5,245C 284.663,243.989 284.33,242.822 284.5,241.5C 288.514,241.666 292.514,241.499 296.5,241C 296.833,240.667 297.167,240.333 297.5,240C 294.741,239.166 293.741,237.666 294.5,235.5C 295.496,235.414 296.329,235.748 297,236.5C 299.158,235.95 299.658,234.95 298.5,233.5C 297.457,230.971 298.457,230.138 301.5,231C 302.053,232.878 303.053,234.378 304.5,235.5 Z"/></g>
<g><path style="opacity:1" fill="#6ea4c3" d="M 210.5,215.5 C 210.333,226.172 210.5,236.839 211,247.5C 211.333,245.167 211.667,242.833 212,240.5C 212.414,240.043 212.914,239.709 213.5,239.5C 214.167,244.985 214.833,250.319 215.5,255.5C 215.5,256.833 215.5,258.167 215.5,259.5C 213.682,261.078 212.682,260.578 212.5,258C 213.96,254.725 213.793,251.558 212,248.5C 210.39,250.31 209.223,252.31 208.5,254.5C 206.271,253.696 205.938,252.363 207.5,250.5C 207.444,249.263 206.944,248.263 206,247.5C 205.503,250.146 205.336,252.813 205.5,255.5C 204.521,258.625 204.187,261.958 204.5,265.5C 203.515,269.634 203.182,273.968 203.5,278.5C 203.167,278.5 202.833,278.5 202.5,278.5C 202.333,262.83 202.5,247.163 203,231.5C 204.667,230.167 206.333,230.167 208,231.5C 208.333,237.167 208.667,242.833 209,248.5C 209.17,237.326 209.67,226.326 210.5,215.5 Z"/></g>
<g><path style="opacity:1" fill="#f2882f" d="M 312.5,241.5 C 312.762,242.978 312.429,244.311 311.5,245.5C 309.668,246.248 308.001,247.248 306.5,248.5C 304.677,247.253 302.677,246.586 300.5,246.5C 300.67,245.178 300.337,244.011 299.5,243C 301.821,240.695 303.821,238.195 305.5,235.5C 305.351,234.448 305.517,233.448 306,232.5C 307.269,233.905 307.769,235.571 307.5,237.5C 310.344,237.343 312.011,238.676 312.5,241.5 Z"/></g>
<g><path style="opacity:1" fill="#4f9eb7" d="M 229.5,233.5 C 230.025,247.48 230.192,262.147 230,277.5C 230.383,278.056 230.883,278.389 231.5,278.5C 231.158,279.338 230.492,279.672 229.5,279.5C 228.51,273.69 228.177,267.69 228.5,261.5C 228.299,256.758 227.632,252.091 226.5,247.5C 226.709,246.914 227.043,246.414 227.5,246C 226.354,245.355 225.354,244.522 224.5,243.5C 223.056,244.981 222.389,244.648 222.5,242.5C 223.167,242.5 223.833,242.5 224.5,242.5C 225.166,237.651 225.833,232.651 226.5,227.5C 228.978,228.722 229.978,230.722 229.5,233.5 Z"/></g>
<g><path style="opacity:0.89" fill="#85cac0" d="M 293.5,249.5 C 296.694,250.517 299.861,251.85 303,253.5C 304.107,252.288 304.607,252.621 304.5,254.5C 302.167,254.5 299.833,254.5 297.5,254.5C 297.587,259.537 297.254,264.537 296.5,269.5C 296.167,269.5 295.833,269.5 295.5,269.5C 295.666,264.156 295.499,258.823 295,253.5C 294.501,258.155 294.334,262.821 294.5,267.5C 293.732,266.737 293.232,265.737 293,264.5C 292.623,265.942 291.79,266.942 290.5,267.5C 291.127,262.929 290.127,258.929 287.5,255.5C 288.461,253.735 288.795,251.735 288.5,249.5C 290.167,249.5 291.833,249.5 293.5,249.5 Z"/></g>
<g><path style="opacity:1" fill="#4091be" d="M 215.5,259.5 C 216.167,259.5 216.5,259.167 216.5,258.5C 216.833,258.5 217.167,258.5 217.5,258.5C 217.5,259.833 217.5,261.167 217.5,262.5C 217.5,263.167 217.5,263.833 217.5,264.5C 215.952,264.821 215.285,265.821 215.5,267.5C 214.883,267.389 214.383,267.056 214,266.5C 213.667,268.833 213.333,271.167 213,273.5C 211.513,272.747 211.346,271.914 212.5,271C 211.009,268.903 210.009,266.57 209.5,264C 210.441,260.735 209.607,257.901 207,255.5C 206.221,258.097 205.721,258.097 205.5,255.5C 205.336,252.813 205.503,250.146 206,247.5C 206.944,248.263 207.444,249.263 207.5,250.5C 205.938,252.363 206.271,253.696 208.5,254.5C 209.223,252.31 210.39,250.31 212,248.5C 213.793,251.558 213.96,254.725 212.5,258C 212.682,260.578 213.682,261.078 215.5,259.5 Z"/></g>
<g><path style="opacity:0.995" fill="#4398b6" d="M 222.5,240.5 C 222.5,241.167 222.5,241.833 222.5,242.5C 222.389,244.648 223.056,244.981 224.5,243.5C 225.354,244.522 226.354,245.355 227.5,246C 227.043,246.414 226.709,246.914 226.5,247.5C 227.632,252.091 228.299,256.758 228.5,261.5C 227.262,259.786 226.595,257.786 226.5,255.5C 224.833,255.5 223.167,255.5 221.5,255.5C 221.5,259.659 222,263.659 223,267.5C 221.188,265.7 219.355,264.033 217.5,262.5C 217.5,261.167 217.5,259.833 217.5,258.5C 217.5,246.833 217.5,235.167 217.5,223.5C 219.167,223.5 220.833,223.5 222.5,223.5C 222.5,229.167 222.5,234.833 222.5,240.5 Z"/></g>
<g><path style="opacity:1" fill="#85d0c3" d="M 324.5,277.5 C 322.075,278.714 320.575,280.714 320,283.5C 319.044,282.421 318.211,281.255 317.5,280C 318.783,277.205 318.783,274.372 317.5,271.5C 316.583,272.127 315.583,272.461 314.5,272.5C 314.077,271.735 313.743,270.902 313.5,270C 315.662,265.709 315.995,261.209 314.5,256.5C 313.859,255.007 312.859,254.007 311.5,253.5C 310.791,252.596 309.791,252.263 308.5,252.5C 308.802,255.059 308.468,257.393 307.5,259.5C 307.5,256.833 307.5,254.167 307.5,251.5C 310.833,251.167 314.167,250.833 317.5,250.5C 317.5,249.5 317.5,248.5 317.5,247.5C 323.276,247.337 329.276,247.337 335.5,247.5C 333.397,258.149 329.73,268.149 324.5,277.5 Z"/></g>
<g><path style="opacity:0.988" fill="#6bbdc3" d="M 257.5,239.5 C 257.5,250.167 257.5,260.833 257.5,271.5C 255.926,271.063 254.759,270.063 254,268.5C 253.501,273.155 253.334,277.821 253.5,282.5C 253.167,282.5 252.833,282.5 252.5,282.5C 252.333,268.163 252.5,253.829 253,239.5C 254.616,238.199 256.116,238.199 257.5,239.5 Z"/></g>
<g><path style="opacity:0.941" fill="#80c4c6" d="M 272.5,299.5 C 271.833,293.654 271.167,287.654 270.5,281.5C 269.833,281.167 269.167,280.833 268.5,280.5C 267.197,286.971 267.197,293.638 268.5,300.5C 267.833,300.833 267.167,301.167 266.5,301.5C 266.333,284.497 266.5,267.497 267,250.5C 268.194,248.475 269.694,248.141 271.5,249.5C 272.499,266.153 272.833,282.82 272.5,299.5 Z"/></g>
<g><path style="opacity:0.882" fill="#7ac9c6" d="M 287.5,255.5 C 290.127,258.929 291.127,262.929 290.5,267.5C 289.167,267.5 288.5,268.167 288.5,269.5C 287.833,270.5 287.167,271.5 286.5,272.5C 285.328,271.295 283.995,271.295 282.5,272.5C 281.831,274.631 281.165,276.631 280.5,278.5C 280.334,271.159 280.5,263.826 281,256.5C 283.144,254.925 285.311,254.592 287.5,255.5 Z"/></g>
<g><path style="opacity:1" fill="#a0ad89" d="M 298.5,245.5 C 299.158,246.398 299.824,247.398 300.5,248.5C 302.733,248.864 304.566,249.864 306,251.5C 306.708,250.619 307.542,249.953 308.5,249.5C 310.97,249.346 312.97,248.346 314.5,246.5C 315.609,246.557 316.609,246.89 317.5,247.5C 317.5,248.5 317.5,249.5 317.5,250.5C 314.167,250.833 310.833,251.167 307.5,251.5C 307.5,254.167 307.5,256.833 307.5,259.5C 307.44,260.043 307.107,260.376 306.5,260.5C 305.831,258.369 305.165,256.369 304.5,254.5C 304.607,252.621 304.107,252.288 303,253.5C 299.861,251.85 296.694,250.517 293.5,249.5C 295.754,248.876 297.421,247.543 298.5,245.5 Z"/></g>
<g><path style="opacity:1" fill="#3d6596" d="M 194.5,259.5 C 194.56,260.043 194.893,260.376 195.5,260.5C 196.325,256.878 196.825,253.211 197,249.5C 198,250.167 199,250.833 200,251.5C 200.168,260.851 200.668,270.184 201.5,279.5C 202.107,279.376 202.44,279.043 202.5,278.5C 202.833,278.5 203.167,278.5 203.5,278.5C 203.5,279.5 203.5,280.5 203.5,281.5C 202.041,281.567 200.708,281.234 199.5,280.5C 199.5,279.833 199.167,279.5 198.5,279.5C 198.492,273.427 197.825,267.427 196.5,261.5C 194.077,262.712 193.077,264.712 193.5,267.5C 192.728,266.306 191.728,265.306 190.5,264.5C 189.609,265.11 188.609,265.443 187.5,265.5C 186.25,265.423 185.417,264.756 185,263.5C 184.667,261.5 184.333,259.5 184,257.5C 183.329,256.748 182.496,256.414 181.5,256.5C 181.174,252.116 181.508,247.783 182.5,243.5C 183.451,242.674 184.451,242.508 185.5,243C 186.149,249.445 186.816,255.945 187.5,262.5C 188.332,254.521 188.832,246.521 189,238.5C 190.549,235.997 192.216,235.997 194,238.5C 194.5,245.492 194.666,252.492 194.5,259.5 Z"/></g>
<g><path style="opacity:0.994" fill="#6dc6bc" d="M 311.5,253.5 C 311.639,256.757 312.306,259.924 313.5,263C 312.921,265.194 312.254,267.36 311.5,269.5C 311.79,271.044 312.456,272.377 313.5,273.5C 311.474,278.126 310.14,282.96 309.5,288C 309.316,289.376 308.649,290.209 307.5,290.5C 308.265,282.255 308.432,274.255 308,266.5C 307.586,266.957 307.086,267.291 306.5,267.5C 305.702,265.922 305.202,264.256 305,262.5C 303.742,266.25 301.742,267.25 299,265.5C 300.174,267.86 299.34,269.193 296.5,269.5C 297.254,264.537 297.587,259.537 297.5,254.5C 299.833,254.5 302.167,254.5 304.5,254.5C 305.165,256.369 305.831,258.369 306.5,260.5C 307.107,260.376 307.44,260.043 307.5,259.5C 308.468,257.393 308.802,255.059 308.5,252.5C 309.791,252.263 310.791,252.596 311.5,253.5 Z"/></g>
<g><path style="opacity:0.999" fill="#3d97bd" d="M 228.5,261.5 C 228.177,267.69 228.51,273.69 229.5,279.5C 229.157,281.483 229.824,282.817 231.5,283.5C 231.451,289.831 230.451,289.831 228.5,283.5C 227.989,281.805 227.322,280.139 226.5,278.5C 225.109,279.645 223.776,279.645 222.5,278.5C 223.485,276.902 223.651,275.235 223,273.5C 222.157,269.8 220.324,266.8 217.5,264.5C 217.5,263.833 217.5,263.167 217.5,262.5C 219.355,264.033 221.188,265.7 223,267.5C 222,263.659 221.5,259.659 221.5,255.5C 223.167,255.5 224.833,255.5 226.5,255.5C 226.595,257.786 227.262,259.786 228.5,261.5 Z"/></g>
<g><path style="opacity:1" fill="#3d8dbc" d="M 205.5,255.5 C 205.721,258.097 206.221,258.097 207,255.5C 209.607,257.901 210.441,260.735 209.5,264C 210.009,266.57 211.009,268.903 212.5,271C 211.346,271.914 211.513,272.747 213,273.5C 213.333,271.167 213.667,268.833 214,266.5C 214.383,267.056 214.883,267.389 215.5,267.5C 215.643,269.262 215.309,270.929 214.5,272.5C 216.591,275.845 217.924,279.512 218.5,283.5C 220.192,282.799 221.858,283.133 223.5,284.5C 223.306,286.912 221.973,287.912 219.5,287.5C 219.238,288.978 219.571,290.311 220.5,291.5C 221.425,292.641 222.259,292.641 223,291.5C 224,292.833 225,294.167 226,295.5C 226.671,298.861 227.837,302.028 229.5,305C 229.43,305.765 229.097,306.265 228.5,306.5C 227.167,305.5 225.833,304.5 224.5,303.5C 220.908,299.066 217.908,294.233 215.5,289C 213.833,285.666 212.666,282.166 212,278.5C 211.617,279.056 211.117,279.389 210.5,279.5C 208.545,274.911 206.545,270.245 204.5,265.5C 204.187,261.958 204.521,258.625 205.5,255.5 Z"/></g>
<g><path style="opacity:0.999" fill="#1e387e" d="M 175.5,252.5 C 175.834,256.673 177.5,260.173 180.5,263C 178.968,263.7 177.968,264.866 177.5,266.5C 177.837,269.828 178.17,273.161 178.5,276.5C 178.267,277.932 177.6,278.432 176.5,278C 175.362,274.21 173.362,271.043 170.5,268.5C 168.733,266.208 167.733,263.542 167.5,260.5C 167.5,257.5 167.5,254.5 167.5,251.5C 170.385,251.194 173.052,251.527 175.5,252.5 Z"/></g>
<g><path style="opacity:1" fill="#3c92be" d="M 217.5,264.5 C 220.324,266.8 222.157,269.8 223,273.5C 223.651,275.235 223.485,276.902 222.5,278.5C 223.776,279.645 225.109,279.645 226.5,278.5C 227.322,280.139 227.989,281.805 228.5,283.5C 226.584,285.116 225.084,284.782 224,282.5C 223.536,283.094 223.369,283.761 223.5,284.5C 221.858,283.133 220.192,282.799 218.5,283.5C 217.924,279.512 216.591,275.845 214.5,272.5C 215.309,270.929 215.643,269.262 215.5,267.5C 215.285,265.821 215.952,264.821 217.5,264.5 Z"/></g>
<g><path style="opacity:0.987" fill="#4598b0" d="M 238.5,237.5 C 239.221,240.979 240.554,244.312 242.5,247.5C 243.499,263.82 243.833,280.153 243.5,296.5C 242.549,295.081 242.216,293.415 242.5,291.5C 242.666,285.158 242.5,278.825 242,272.5C 241.827,276.541 241.327,280.541 240.5,284.5C 238.118,280.494 237.118,276.161 237.5,271.5C 236.321,269.493 236.821,269.16 239,270.5C 241.839,267.552 242.005,264.552 239.5,261.5C 236.121,262.452 235.788,261.785 238.5,259.5C 238.5,252.167 238.5,244.833 238.5,237.5 Z"/></g>
<g><path style="opacity:0.314" fill="#82cdcd" d="M 279.5,275.5 C 277.62,275.229 276.287,275.896 275.5,277.5C 274.833,284.833 274.167,292.167 273.5,299.5C 273.333,285.829 273.5,272.163 274,258.5C 274.879,255.654 276.546,254.987 279,256.5C 279.5,262.825 279.666,269.158 279.5,275.5 Z"/></g>
<g><path style="opacity:1" fill="#62c3bb" d="M 307.5,290.5 C 307.167,290.5 306.833,290.5 306.5,290.5C 304.423,287.199 303.423,283.532 303.5,279.5C 301.278,279.822 299.444,279.155 298,277.5C 297.605,274.793 297.105,272.127 296.5,269.5C 299.34,269.193 300.174,267.86 299,265.5C 301.742,267.25 303.742,266.25 305,262.5C 305.202,264.256 305.702,265.922 306.5,267.5C 307.086,267.291 307.586,266.957 308,266.5C 308.432,274.255 308.265,282.255 307.5,290.5 Z"/></g>
<g><path style="opacity:1" fill="#80cbc6" d="M 311.5,253.5 C 312.859,254.007 313.859,255.007 314.5,256.5C 315.995,261.209 315.662,265.709 313.5,270C 313.743,270.902 314.077,271.735 314.5,272.5C 314.352,277.75 313.352,282.75 311.5,287.5C 312.833,287.5 314.167,287.5 315.5,287.5C 315.559,290.049 314.559,292.049 312.5,293.5C 313.246,294.736 313.579,296.07 313.5,297.5C 306.024,309.653 296.69,320.319 285.5,329.5C 282.96,327.334 283.627,326.334 287.5,326.5C 287.229,324.62 287.896,323.287 289.5,322.5C 290.5,322.167 291.167,321.5 291.5,320.5C 295.623,315.359 298.956,309.692 301.5,303.5C 302.931,302.22 303.598,300.553 303.5,298.5C 305.655,296.383 306.655,293.716 306.5,290.5C 306.833,290.5 307.167,290.5 307.5,290.5C 308.649,290.209 309.316,289.376 309.5,288C 310.14,282.96 311.474,278.126 313.5,273.5C 312.456,272.377 311.79,271.044 311.5,269.5C 312.254,267.36 312.921,265.194 313.5,263C 312.306,259.924 311.639,256.757 311.5,253.5 Z"/></g>
<g><path style="opacity:1" fill="#86cec6" d="M 324.5,277.5 C 321.865,284.774 318.198,291.441 313.5,297.5C 313.579,296.07 313.246,294.736 312.5,293.5C 314.559,292.049 315.559,290.049 315.5,287.5C 314.167,287.5 312.833,287.5 311.5,287.5C 313.352,282.75 314.352,277.75 314.5,272.5C 315.583,272.461 316.583,272.127 317.5,271.5C 318.783,274.372 318.783,277.205 317.5,280C 318.211,281.255 319.044,282.421 320,283.5C 320.575,280.714 322.075,278.714 324.5,277.5 Z"/></g>
<g><path style="opacity:1" fill="#235193" d="M 190.5,264.5 C 191.786,270.999 192.786,277.499 193.5,284C 192.576,285.811 191.743,285.645 191,283.5C 190.308,284.025 189.808,284.692 189.5,285.5C 189.165,287.909 189.831,290.243 191.5,292.5C 191.03,294.774 190.03,296.774 188.5,298.5C 187.253,296.994 187.253,295.494 188.5,294C 187.695,292.887 187.028,291.721 186.5,290.5C 186.631,289.761 186.464,289.094 186,288.5C 185.346,289.696 184.846,289.696 184.5,288.5C 185.127,287.583 185.461,286.583 185.5,285.5C 187.811,283.169 187.811,280.669 185.5,278C 186.136,273.788 186.802,269.621 187.5,265.5C 188.609,265.443 189.609,265.11 190.5,264.5 Z"/></g>
<g><path style="opacity:1" fill="#244387" d="M 175.5,252.5 C 176.643,252.908 177.643,253.575 178.5,254.5C 177.674,255.451 177.508,256.451 178,257.5C 183.355,261.205 185.855,266.371 185.5,273C 183.749,276.724 182.749,280.391 182.5,284C 183.244,285.039 184.244,285.539 185.5,285.5C 185.461,286.583 185.127,287.583 184.5,288.5C 184.846,289.696 185.346,289.696 186,288.5C 186.464,289.094 186.631,289.761 186.5,290.5C 185.842,291.398 185.176,292.398 184.5,293.5C 183.591,291.625 182.257,290.292 180.5,289.5C 176.379,282.923 173.046,275.923 170.5,268.5C 173.362,271.043 175.362,274.21 176.5,278C 177.6,278.432 178.267,277.932 178.5,276.5C 178.17,273.161 177.837,269.828 177.5,266.5C 177.968,264.866 178.968,263.7 180.5,263C 177.5,260.173 175.834,256.673 175.5,252.5 Z"/></g>
<g><path style="opacity:1" fill="#439bb6" d="M 237.5,236.5 C 237.175,244.352 237.508,252.018 238.5,259.5C 235.788,261.785 236.121,262.452 239.5,261.5C 242.005,264.552 241.839,267.552 239,270.5C 236.821,269.16 236.321,269.493 237.5,271.5C 235.75,274.355 234.917,277.689 235,281.5C 234.148,280.429 233.315,279.429 232.5,278.5C 232.333,262.83 232.5,247.163 233,231.5C 234.193,233.497 235.693,235.164 237.5,236.5 Z"/></g>
<g><path style="opacity:1" fill="#5ebdb9" d="M 294.5,267.5 C 294.328,268.492 294.662,269.158 295.5,269.5C 295.833,269.5 296.167,269.5 296.5,269.5C 297.105,272.127 297.605,274.793 298,277.5C 299.444,279.155 301.278,279.822 303.5,279.5C 303.423,283.532 304.423,287.199 306.5,290.5C 306.655,293.716 305.655,296.383 303.5,298.5C 303.66,296.801 303.494,295.134 303,293.5C 302.667,293.833 302.333,294.167 302,294.5C 299.773,290.669 296.94,287.336 293.5,284.5C 290.167,282.748 288.501,283.748 288.5,287.5C 287.833,287.5 287.167,287.5 286.5,287.5C 286.044,283.011 286.044,278.678 286.5,274.5C 287.268,275.263 287.768,276.263 288,277.5C 288.497,274.854 288.664,272.187 288.5,269.5C 288.5,268.167 289.167,267.5 290.5,267.5C 291.79,266.942 292.623,265.942 293,264.5C 293.232,265.737 293.732,266.737 294.5,267.5 Z"/></g>
<g><path style="opacity:1" fill="#3b97bc" d="M 237.5,271.5 C 237.118,276.161 238.118,280.494 240.5,284.5C 241.327,280.541 241.827,276.541 242,272.5C 242.5,278.825 242.666,285.158 242.5,291.5C 238.971,293.646 238.638,296.313 241.5,299.5C 239.657,300.246 238.324,301.579 237.5,303.5C 236.824,302.398 236.158,301.398 235.5,300.5C 233.527,294.209 232.693,288.209 233,282.5C 232.617,283.056 232.117,283.389 231.5,283.5C 229.824,282.817 229.157,281.483 229.5,279.5C 230.492,279.672 231.158,279.338 231.5,278.5C 231.833,278.5 232.167,278.5 232.5,278.5C 233.315,279.429 234.148,280.429 235,281.5C 234.917,277.689 235.75,274.355 237.5,271.5 Z"/></g>
<g><path style="opacity:1" fill="#2f4c89" d="M 181.5,256.5 C 182.496,256.414 183.329,256.748 184,257.5C 184.333,259.5 184.667,261.5 185,263.5C 185.417,264.756 186.25,265.423 187.5,265.5C 186.802,269.621 186.136,273.788 185.5,278C 187.811,280.669 187.811,283.169 185.5,285.5C 184.244,285.539 183.244,285.039 182.5,284C 182.749,280.391 183.749,276.724 185.5,273C 185.855,266.371 183.355,261.205 178,257.5C 177.508,256.451 177.674,255.451 178.5,254.5C 177.643,253.575 176.643,252.908 175.5,252.5C 173.052,251.527 170.385,251.194 167.5,251.5C 167.5,254.5 167.5,257.5 167.5,260.5C 166.292,257.182 164.958,253.849 163.5,250.5C 168.792,249.505 174.125,249.172 179.5,249.5C 178.99,252.388 179.656,254.721 181.5,256.5 Z"/></g>
<g><path style="opacity:0.086" fill="#8ec9d2" d="M 257.5,239.5 C 258.332,261.33 258.832,283.33 259,305.5C 259.333,293.167 259.667,280.833 260,268.5C 261.667,267.167 263.333,267.167 265,268.5C 265.497,271.146 265.664,273.813 265.5,276.5C 263.903,275.91 262.569,274.91 261.5,273.5C 260.501,284.48 260.168,295.48 260.5,306.5C 259.5,306.5 258.5,306.5 257.5,306.5C 257.5,294.833 257.5,283.167 257.5,271.5C 257.5,260.833 257.5,250.167 257.5,239.5 Z"/></g>
<g><path style="opacity:1" fill="#3b91bc" d="M 228.5,283.5 C 230.451,289.831 231.451,289.831 231.5,283.5C 232.117,283.389 232.617,283.056 233,282.5C 232.693,288.209 233.527,294.209 235.5,300.5C 235.649,301.552 235.483,302.552 235,303.5C 234.691,302.234 234.191,301.067 233.5,300C 232.4,299.568 231.733,300.068 231.5,301.5C 233.122,305.011 234.122,308.678 234.5,312.5C 232.061,310.973 230.061,308.973 228.5,306.5C 229.097,306.265 229.43,305.765 229.5,305C 227.837,302.028 226.671,298.861 226,295.5C 225,294.167 224,292.833 223,291.5C 222.259,292.641 221.425,292.641 220.5,291.5C 219.571,290.311 219.238,288.978 219.5,287.5C 221.973,287.912 223.306,286.912 223.5,284.5C 223.369,283.761 223.536,283.094 224,282.5C 225.084,284.782 226.584,285.116 228.5,283.5 Z"/></g>
<g><path style="opacity:1" fill="#56b9b8" d="M 303.5,298.5 C 303.598,300.553 302.931,302.22 301.5,303.5C 301.657,302.127 301.49,300.793 301,299.5C 300.167,301.5 299.333,303.5 298.5,305.5C 297.289,304.726 297.289,303.893 298.5,303C 295.384,299.272 292.384,295.439 289.5,291.5C 288.754,290.264 288.421,288.93 288.5,287.5C 288.501,283.748 290.167,282.748 293.5,284.5C 296.94,287.336 299.773,290.669 302,294.5C 302.333,294.167 302.667,293.833 303,293.5C 303.494,295.134 303.66,296.801 303.5,298.5 Z"/></g>
<g><path style="opacity:1" fill="#52a7be" d="M 252.5,282.5 C 252.833,282.5 253.167,282.5 253.5,282.5C 253.81,283.738 254.31,283.738 255,282.5C 255.333,281.167 255.667,279.833 256,278.5C 256.499,284.157 256.666,289.824 256.5,295.5C 255.834,291.979 255.167,288.313 254.5,284.5C 251.816,289.047 251.15,294.047 252.5,299.5C 251.5,299.5 250.5,299.5 249.5,299.5C 248.789,294.343 248.789,289.01 249.5,283.5C 250.659,273.342 250.825,263.008 250,252.5C 249,251.167 248,251.167 247,252.5C 246.5,261.827 246.334,271.161 246.5,280.5C 246.822,286.358 246.489,292.025 245.5,297.5C 245.333,281.83 245.5,266.163 246,250.5C 247.667,249.167 249.333,249.167 251,250.5C 251.17,261.341 251.67,272.008 252.5,282.5 Z"/></g>
<g><path style="opacity:0.899" fill="#409bac" d="M 249.5,283.5 C 248.833,282.167 247.833,281.167 246.5,280.5C 246.334,271.161 246.5,261.827 247,252.5C 248,251.167 249,251.167 250,252.5C 250.825,263.008 250.659,273.342 249.5,283.5 Z"/></g>
<g><path style="opacity:1" fill="#2d5b9b" d="M 190.5,264.5 C 191.728,265.306 192.728,266.306 193.5,267.5C 193.579,269.666 194.246,271.666 195.5,273.5C 195.059,275.145 194.726,276.811 194.5,278.5C 195.992,283.781 196.825,289.115 197,294.5C 196.346,293.304 195.846,293.304 195.5,294.5C 196.748,297.494 196.748,300.494 195.5,303.5C 193.518,304.623 191.518,304.623 189.5,303.5C 185.715,299.373 182.715,294.706 180.5,289.5C 182.257,290.292 183.591,291.625 184.5,293.5C 185.176,292.398 185.842,291.398 186.5,290.5C 187.028,291.721 187.695,292.887 188.5,294C 187.253,295.494 187.253,296.994 188.5,298.5C 190.03,296.774 191.03,294.774 191.5,292.5C 189.831,290.243 189.165,287.909 189.5,285.5C 189.808,284.692 190.308,284.025 191,283.5C 191.743,285.645 192.576,285.811 193.5,284C 192.786,277.499 191.786,270.999 190.5,264.5 Z"/></g>
<g><path style="opacity:1" fill="#2c72a7" d="M 204.5,265.5 C 206.545,270.245 208.545,274.911 210.5,279.5C 211.413,283.159 212.746,286.659 214.5,290C 214.043,290.414 213.709,290.914 213.5,291.5C 216.321,294.115 217.654,297.115 217.5,300.5C 220.531,305.06 222.864,309.893 224.5,315C 223.929,316.205 223.262,317.372 222.5,318.5C 221.549,317.674 220.549,317.508 219.5,318C 219.47,319.429 219.803,320.929 220.5,322.5C 219.246,325.267 217.246,325.933 214.5,324.5C 215.127,323.583 215.461,322.583 215.5,321.5C 216.5,321.5 217.5,321.5 218.5,321.5C 218.167,319.5 217.833,317.5 217.5,315.5C 214.656,315.657 212.989,314.324 212.5,311.5C 214.137,312.218 215.803,312.384 217.5,312C 215.139,306.018 212.472,300.185 209.5,294.5C 209.931,293.707 210.265,292.873 210.5,292C 209.57,287.05 207.903,282.05 205.5,277C 206.861,274.736 206.694,272.57 205,270.5C 204.817,273.365 204.317,276.031 203.5,278.5C 203.182,273.968 203.515,269.634 204.5,265.5 Z"/></g>
<g><path style="opacity:1" fill="#42aab0" d="M 286.5,272.5 C 286.5,273.167 286.5,273.833 286.5,274.5C 286.044,278.678 286.044,283.011 286.5,287.5C 286.5,289.167 286.5,290.833 286.5,292.5C 286.665,296.182 286.499,299.848 286,303.5C 285.722,304.416 285.222,305.082 284.5,305.5C 282.205,302.685 279.871,299.352 277.5,295.5C 276.649,289.66 275.982,283.66 275.5,277.5C 276.287,275.896 277.62,275.229 279.5,275.5C 279.263,276.791 279.596,277.791 280.5,278.5C 281.165,276.631 281.831,274.631 282.5,272.5C 283.995,271.295 285.328,271.295 286.5,272.5 Z"/></g>
<g><path style="opacity:1" fill="#47a0ac" d="M 275.5,277.5 C 275.982,283.66 276.649,289.66 277.5,295.5C 277.02,298.651 275.354,300.985 272.5,302.5C 271.808,301.975 271.308,301.308 271,300.5C 270.329,301.252 269.496,301.586 268.5,301.5C 268.5,301.167 268.5,300.833 268.5,300.5C 267.197,293.638 267.197,286.971 268.5,280.5C 269.167,280.833 269.833,281.167 270.5,281.5C 271.167,287.654 271.833,293.654 272.5,299.5C 272.833,299.5 273.167,299.5 273.5,299.5C 274.167,292.167 274.833,284.833 275.5,277.5 Z"/></g>
<g><path style="opacity:1" fill="#50b5b6" d="M 286.5,287.5 C 287.167,287.5 287.833,287.5 288.5,287.5C 288.421,288.93 288.754,290.264 289.5,291.5C 292.384,295.439 295.384,299.272 298.5,303C 297.289,303.893 297.289,304.726 298.5,305.5C 299.333,303.5 300.167,301.5 301,299.5C 301.49,300.793 301.657,302.127 301.5,303.5C 298.956,309.692 295.623,315.359 291.5,320.5C 289.752,317.824 290.419,315.991 293.5,315C 293.043,314.586 292.709,314.086 292.5,313.5C 294.261,311.747 295.594,309.747 296.5,307.5C 293.889,301.924 290.556,296.924 286.5,292.5C 286.5,290.833 286.5,289.167 286.5,287.5 Z"/></g>
<g><path style="opacity:1" fill="#4cb0b5" d="M 286.5,292.5 C 290.556,296.924 293.889,301.924 296.5,307.5C 295.594,309.747 294.261,311.747 292.5,313.5C 292.709,314.086 293.043,314.586 293.5,315C 290.419,315.991 289.752,317.824 291.5,320.5C 291.167,321.5 290.5,322.167 289.5,322.5C 289.769,320.571 289.269,318.905 288,317.5C 287.692,318.308 287.192,318.975 286.5,319.5C 285.575,318.359 284.741,318.359 284,319.5C 283.283,318.956 282.783,318.289 282.5,317.5C 282.848,313.443 283.514,309.443 284.5,305.5C 285.222,305.082 285.722,304.416 286,303.5C 286.499,299.848 286.665,296.182 286.5,292.5 Z"/></g>
<g><path style="opacity:1" fill="#2f64a3" d="M 198.5,279.5 C 198.461,280.583 198.127,281.583 197.5,282.5C 198.167,283.5 198.833,284.5 199.5,285.5C 199.539,289.302 199.539,293.136 199.5,297C 200.483,301.915 202.483,306.749 205.5,311.5C 204.23,312.288 203.23,313.288 202.5,314.5C 201.298,315.405 199.964,315.405 198.5,314.5C 195.271,311.057 192.271,307.39 189.5,303.5C 191.518,304.623 193.518,304.623 195.5,303.5C 196.748,300.494 196.748,297.494 195.5,294.5C 195.846,293.304 196.346,293.304 197,294.5C 196.825,289.115 195.992,283.781 194.5,278.5C 194.726,276.811 195.059,275.145 195.5,273.5C 194.246,271.666 193.579,269.666 193.5,267.5C 193.077,264.712 194.077,262.712 196.5,261.5C 197.825,267.427 198.492,273.427 198.5,279.5 Z"/></g>
<g><path style="opacity:1" fill="#2b6da6" d="M 212.5,311.5 C 209.834,307.338 207.167,302.671 204.5,297.5C 204.709,296.914 205.043,296.414 205.5,296C 204.287,292.384 203.287,288.718 202.5,285C 202.833,284.667 203.167,284.333 203.5,284C 201.681,283.26 200.348,282.093 199.5,280.5C 200.708,281.234 202.041,281.567 203.5,281.5C 203.5,280.5 203.5,279.5 203.5,278.5C 204.317,276.031 204.817,273.365 205,270.5C 206.694,272.57 206.861,274.736 205.5,277C 207.903,282.05 209.57,287.05 210.5,292C 210.265,292.873 209.931,293.707 209.5,294.5C 212.472,300.185 215.139,306.018 217.5,312C 215.803,312.384 214.137,312.218 212.5,311.5 Z"/></g>
<g><path style="opacity:1" fill="#347aab" d="M 224.5,303.5 C 225.362,306.536 227.195,308.869 230,310.5C 230.667,313.167 231.333,315.833 232,318.5C 232.333,318.167 232.667,317.833 233,317.5C 233.667,319.167 233.667,320.833 233,322.5C 232.346,321.304 231.846,321.304 231.5,322.5C 232.689,323.429 234.022,323.762 235.5,323.5C 236.055,327.584 235.055,328.251 232.5,325.5C 232.711,327.969 233.878,330.303 236,332.5C 235.012,334.92 235.345,337.253 237,339.5C 238.153,337.503 239.653,337.17 241.5,338.5C 239.831,339.671 238.331,341.004 237,342.5C 234.901,341.713 232.734,341.38 230.5,341.5C 224.8,337.984 219.467,333.984 214.5,329.5C 219.058,328.38 221.891,330.047 223,334.5C 225.443,336.663 227.943,336.83 230.5,335C 227.252,332.919 224.919,330.086 223.5,326.5C 226.546,322.186 225.546,320.853 220.5,322.5C 219.803,320.929 219.47,319.429 219.5,318C 220.549,317.508 221.549,317.674 222.5,318.5C 223.262,317.372 223.929,316.205 224.5,315C 222.864,309.893 220.531,305.06 217.5,300.5C 217.654,297.115 216.321,294.115 213.5,291.5C 213.709,290.914 214.043,290.414 214.5,290C 212.746,286.659 211.413,283.159 210.5,279.5C 211.117,279.389 211.617,279.056 212,278.5C 212.666,282.166 213.833,285.666 215.5,289C 217.908,294.233 220.908,299.066 224.5,303.5 Z"/></g>
<g><path style="opacity:1" fill="#3992b9" d="M 235.5,300.5 C 236.158,301.398 236.824,302.398 237.5,303.5C 238.324,301.579 239.657,300.246 241.5,299.5C 241.753,301.827 241.086,303.827 239.5,305.5C 241.942,308.729 244.608,311.729 247.5,314.5C 247.023,315.478 246.357,316.311 245.5,317C 246.381,317.708 247.047,318.542 247.5,319.5C 246.5,319.5 245.5,319.5 244.5,319.5C 240.851,317.671 237.518,315.337 234.5,312.5C 234.122,308.678 233.122,305.011 231.5,301.5C 231.733,300.068 232.4,299.568 233.5,300C 234.191,301.067 234.691,302.234 235,303.5C 235.483,302.552 235.649,301.552 235.5,300.5 Z"/></g>
<g><path style="opacity:1" fill="#2d6ca9" d="M 198.5,279.5 C 199.167,279.5 199.5,279.833 199.5,280.5C 200.348,282.093 201.681,283.26 203.5,284C 203.167,284.333 202.833,284.667 202.5,285C 203.287,288.718 204.287,292.384 205.5,296C 205.043,296.414 204.709,296.914 204.5,297.5C 207.167,302.671 209.834,307.338 212.5,311.5C 212.989,314.324 214.656,315.657 217.5,315.5C 217.833,317.5 218.167,319.5 218.5,321.5C 217.5,321.5 216.5,321.5 215.5,321.5C 213.533,321.261 211.699,321.594 210,322.5C 208.414,321.624 206.914,320.624 205.5,319.5C 204.935,317.456 203.935,315.79 202.5,314.5C 203.23,313.288 204.23,312.288 205.5,311.5C 202.483,306.749 200.483,301.915 199.5,297C 199.539,293.136 199.539,289.302 199.5,285.5C 198.833,284.5 198.167,283.5 197.5,282.5C 198.127,281.583 198.461,280.583 198.5,279.5 Z"/></g>
<g><path style="opacity:1" fill="#3c9fbb" d="M 256.5,295.5 C 256.162,300.186 255.995,304.853 256,309.5C 257.825,310.103 259.659,310.77 261.5,311.5C 262.653,312.687 262.653,313.687 261.5,314.5C 258.6,315.954 257.267,314.954 257.5,311.5C 255.071,311.116 252.737,310.449 250.5,309.5C 250.169,306.162 249.836,302.829 249.5,299.5C 250.5,299.5 251.5,299.5 252.5,299.5C 251.15,294.047 251.816,289.047 254.5,284.5C 255.167,288.313 255.834,291.979 256.5,295.5 Z"/></g>
<g><path style="opacity:1" fill="#3a99b9" d="M 246.5,280.5 C 247.833,281.167 248.833,282.167 249.5,283.5C 248.789,289.01 248.789,294.343 249.5,299.5C 249.836,302.829 250.169,306.162 250.5,309.5C 252.737,310.449 255.071,311.116 257.5,311.5C 257.267,314.954 258.6,315.954 261.5,314.5C 261.5,315.833 261.5,317.167 261.5,318.5C 261.5,318.833 261.5,319.167 261.5,319.5C 259.265,319.205 257.265,319.539 255.5,320.5C 252.763,320.599 250.096,320.265 247.5,319.5C 247.047,318.542 246.381,317.708 245.5,317C 246.357,316.311 247.023,315.478 247.5,314.5C 244.608,311.729 241.942,308.729 239.5,305.5C 241.086,303.827 241.753,301.827 241.5,299.5C 238.638,296.313 238.971,293.646 242.5,291.5C 242.216,293.415 242.549,295.081 243.5,296.5C 243.833,296.5 244.167,296.5 244.5,296.5C 244.5,297.167 244.833,297.5 245.5,297.5C 246.489,292.025 246.822,286.358 246.5,280.5 Z"/></g>
<g><path style="opacity:1" fill="#36a0ac" d="M 277.5,295.5 C 279.871,299.352 282.205,302.685 284.5,305.5C 283.514,309.443 282.848,313.443 282.5,317.5C 280.208,319.937 278.208,322.604 276.5,325.5C 275.017,323.906 273.517,322.24 272,320.5C 271.956,317.525 272.123,314.525 272.5,311.5C 272.611,310.883 272.944,310.383 273.5,310C 269.56,308.55 267.893,305.716 268.5,301.5C 269.496,301.586 270.329,301.252 271,300.5C 271.308,301.308 271.808,301.975 272.5,302.5C 275.354,300.985 277.02,298.651 277.5,295.5 Z"/></g>
<g><path style="opacity:0.942" fill="#479fb1" d="M 257.5,271.5 C 257.5,283.167 257.5,294.833 257.5,306.5C 258.5,306.5 259.5,306.5 260.5,306.5C 260.168,295.48 260.501,284.48 261.5,273.5C 262.569,274.91 263.903,275.91 265.5,276.5C 264.899,290.93 265.232,299.264 266.5,301.5C 267.167,301.167 267.833,300.833 268.5,300.5C 268.5,300.833 268.5,301.167 268.5,301.5C 267.893,305.716 269.56,308.55 273.5,310C 272.944,310.383 272.611,310.883 272.5,311.5C 271.733,312.172 271.066,313.005 270.5,314C 267.421,315.411 264.421,316.911 261.5,318.5C 261.5,317.167 261.5,315.833 261.5,314.5C 262.653,313.687 262.653,312.687 261.5,311.5C 259.659,310.77 257.825,310.103 256,309.5C 255.995,304.853 256.162,300.186 256.5,295.5C 256.666,289.824 256.499,284.157 256,278.5C 255.667,279.833 255.333,281.167 255,282.5C 254.31,283.738 253.81,283.738 253.5,282.5C 253.334,277.821 253.501,273.155 254,268.5C 254.759,270.063 255.926,271.063 257.5,271.5 Z"/></g>
<g><path style="opacity:1" fill="#2f93a7" d="M 272.5,311.5 C 272.123,314.525 271.956,317.525 272,320.5C 273.517,322.24 275.017,323.906 276.5,325.5C 274.323,330.681 271.323,335.348 267.5,339.5C 267.649,338.448 267.483,337.448 267,336.5C 266.282,337.451 265.449,337.617 264.5,337C 265.759,336.077 267.092,335.243 268.5,334.5C 266.487,332.826 264.82,330.826 263.5,328.5C 264.37,325.185 263.703,322.185 261.5,319.5C 261.5,319.167 261.5,318.833 261.5,318.5C 264.421,316.911 267.421,315.411 270.5,314C 271.066,313.005 271.733,312.172 272.5,311.5 Z"/></g>
<g><path style="opacity:1" fill="#2f7fa7" d="M 224.5,303.5 C 225.833,304.5 227.167,305.5 228.5,306.5C 230.061,308.973 232.061,310.973 234.5,312.5C 237.518,315.337 240.851,317.671 244.5,319.5C 245.788,322.579 247.455,325.412 249.5,328C 246.919,330.16 246.919,332.326 249.5,334.5C 248.975,335.192 248.308,335.692 247.5,336C 249.221,336.739 250.887,337.573 252.5,338.5C 250.833,339.667 249.167,340.833 247.5,342C 248.43,342.991 249.596,343.491 251,343.5C 252.825,343.057 254.658,342.723 256.5,342.5C 258.476,343.427 258.809,344.76 257.5,346.5C 251.518,348.95 245.518,348.95 239.5,346.5C 236.24,345.226 233.24,343.56 230.5,341.5C 232.734,341.38 234.901,341.713 237,342.5C 238.331,341.004 239.831,339.671 241.5,338.5C 239.653,337.17 238.153,337.503 237,339.5C 235.345,337.253 235.012,334.92 236,332.5C 233.878,330.303 232.711,327.969 232.5,325.5C 235.055,328.251 236.055,327.584 235.5,323.5C 234.022,323.762 232.689,323.429 231.5,322.5C 231.846,321.304 232.346,321.304 233,322.5C 233.667,320.833 233.667,319.167 233,317.5C 232.667,317.833 232.333,318.167 232,318.5C 231.333,315.833 230.667,313.167 230,310.5C 227.195,308.869 225.362,306.536 224.5,303.5 Z"/></g>
<g><path style="opacity:1" fill="#358ba5" d="M 261.5,319.5 C 263.703,322.185 264.37,325.185 263.5,328.5C 264.82,330.826 266.487,332.826 268.5,334.5C 267.092,335.243 265.759,336.077 264.5,337C 265.449,337.617 266.282,337.451 267,336.5C 267.483,337.448 267.649,338.448 267.5,339.5C 265.273,340.401 264.273,342.067 264.5,344.5C 259.39,347.26 254.224,349.927 249,352.5C 245.66,350.637 242.493,348.637 239.5,346.5C 245.518,348.95 251.518,348.95 257.5,346.5C 258.809,344.76 258.476,343.427 256.5,342.5C 256.196,341.85 255.863,341.183 255.5,340.5C 256.833,339.167 258.167,337.833 259.5,336.5C 258.372,335.738 257.205,335.071 256,334.5C 255.501,329.845 255.334,325.179 255.5,320.5C 257.265,319.539 259.265,319.205 261.5,319.5 Z"/></g>
<g><path style="opacity:0.999" fill="#52a9b4" d="M 282.5,317.5 C 282.783,318.289 283.283,318.956 284,319.5C 284.741,318.359 285.575,318.359 286.5,319.5C 287.192,318.975 287.692,318.308 288,317.5C 289.269,318.905 289.769,320.571 289.5,322.5C 287.896,323.287 287.229,324.62 287.5,326.5C 283.627,326.334 282.96,327.334 285.5,329.5C 279.028,335.236 272.028,340.236 264.5,344.5C 264.273,342.067 265.273,340.401 267.5,339.5C 271.323,335.348 274.323,330.681 276.5,325.5C 278.208,322.604 280.208,319.937 282.5,317.5 Z"/></g>
<g><path style="opacity:1" fill="#2d87a7" d="M 244.5,319.5 C 245.5,319.5 246.5,319.5 247.5,319.5C 250.096,320.265 252.763,320.599 255.5,320.5C 255.334,325.179 255.501,329.845 256,334.5C 257.205,335.071 258.372,335.738 259.5,336.5C 258.167,337.833 256.833,339.167 255.5,340.5C 255.863,341.183 256.196,341.85 256.5,342.5C 254.658,342.723 252.825,343.057 251,343.5C 249.596,343.491 248.43,342.991 247.5,342C 249.167,340.833 250.833,339.667 252.5,338.5C 250.887,337.573 249.221,336.739 247.5,336C 248.308,335.692 248.975,335.192 249.5,334.5C 246.919,332.326 246.919,330.16 249.5,328C 247.455,325.412 245.788,322.579 244.5,319.5 Z"/></g>
<g><path style="opacity:1" fill="#3574ab" d="M 198.5,314.5 C 199.964,315.405 201.298,315.405 202.5,314.5C 203.935,315.79 204.935,317.456 205.5,319.5C 206.914,320.624 208.414,321.624 210,322.5C 211.699,321.594 213.533,321.261 215.5,321.5C 215.461,322.583 215.127,323.583 214.5,324.5C 217.246,325.933 219.246,325.267 220.5,322.5C 225.546,320.853 226.546,322.186 223.5,326.5C 224.919,330.086 227.252,332.919 230.5,335C 227.943,336.83 225.443,336.663 223,334.5C 221.891,330.047 219.058,328.38 214.5,329.5C 208.558,325.227 203.224,320.227 198.5,314.5 Z"/></g>
</svg>
